<?xml version="1.0" encoding="utf-8"?>
<!-- Generator: Adobe Illustrator 15.1.0, SVG Export Plug-In . SVG Version: 6.00 Build 0)  -->
<!DOCTYPE svg PUBLIC "-//W3C//DTD SVG 1.1//EN" "http://www.w3.org/Graphics/SVG/1.1/DTD/svg11.dtd">
<svg version="1.1" xmlns="http://www.w3.org/2000/svg" xmlns:xlink="http://www.w3.org/1999/xlink" x="0px" y="0px" width="720px"
	 height="648px" viewBox="0 0 720 648" enable-background="new 0 0 720 648" xml:space="preserve">
<g id="Layer_2">
	<g>
		<rect x="89.625" y="53.996" opacity="0.5" fill="#FFFFFF" width="540" height="540.001"/>
		<g>
			<polyline fill="none" stroke="#333333" stroke-width="0.25" stroke-miterlimit="10" points="629.625,54.496 629.625,53.996 
				629.125,53.996 			"/>
			
				<line fill="none" stroke="#333333" stroke-width="0.25" stroke-miterlimit="10" stroke-dasharray="1,1" x1="628.125" y1="53.996" x2="90.625" y2="53.996"/>
			<polyline fill="none" stroke="#333333" stroke-width="0.25" stroke-miterlimit="10" points="90.125,53.996 89.625,53.996 
				89.625,54.496 			"/>
			
				<line fill="none" stroke="#333333" stroke-width="0.25" stroke-miterlimit="10" stroke-dasharray="1,1" x1="89.625" y1="55.496" x2="89.625" y2="592.997"/>
			<polyline fill="none" stroke="#333333" stroke-width="0.25" stroke-miterlimit="10" points="89.625,593.497 89.625,593.997 
				90.125,593.997 			"/>
			
				<line fill="none" stroke="#333333" stroke-width="0.25" stroke-miterlimit="10" stroke-dasharray="1,1" x1="91.125" y1="593.997" x2="628.625" y2="593.997"/>
			<polyline fill="none" stroke="#333333" stroke-width="0.25" stroke-miterlimit="10" points="629.125,593.997 629.625,593.997 
				629.625,593.497 			"/>
			
				<line fill="none" stroke="#333333" stroke-width="0.25" stroke-miterlimit="10" stroke-dasharray="1,1" x1="629.625" y1="592.497" x2="629.625" y2="54.996"/>
		</g>
	</g>
</g>
<g id="Layer_1">
	<text transform="matrix(1 0 0 1 327.5947 17.0161)"><tspan x="0" y="0" font-family="'RobotoMono-Bold'" font-size="12">ECOSYSTEM</tspan><tspan x="-66.196" y="15.75" font-family="'RobotoMono-LightItalic'" font-size="12">Marketplace and transactions</tspan></text>
	<text transform="matrix(1 0 0 1 552.5918 102.0674)" font-family="'RobotoMono-Bold'" font-size="12">DepotGoGo</text>
	<text transform="matrix(1 0 0 1 566.0938 552.0684)" font-family="'RobotoMono-Regular'" font-size="9">Swapbox</text>
	<text transform="matrix(1 0 0 1 557.9932 273.7744)" font-family="'RobotoMono-Regular'" font-size="9">Cragislist</text>
	<text transform="matrix(1 0 0 1 99.7383 102.0679)" font-family="'RobotoMono-Regular'" font-size="9">Amazon Locker</text>
	<text transform="matrix(1 0 0 1 484.2002 440.1787)" font-family="'RobotoMono-Regular'" font-size="9">USPS</text>
	<text transform="matrix(1 0 0 1 486.9004 469.8633)" font-family="'RobotoMono-Regular'" font-size="9">UPS</text>
	<text transform="matrix(1 0 0 1 481.5 455.0205)" font-family="'RobotoMono-Regular'" font-size="9">FedEx</text>
	<text transform="matrix(1 0 0 1 574.1953 293.0659)" font-family="'RobotoMono-Regular'" font-size="9">eBay</text>
	<text transform="matrix(1 0 0 1 199.7622 455.0205)" font-family="'RobotoMono-Regular'" font-size="9">Clean Cube</text>
	<text transform="matrix(1 0 0 1 207.8633 484.7051)" font-family="'RobotoMono-Regular'" font-size="9">Livible</text>
	<text transform="matrix(1 0 0 1 213.2646 499.5469)" font-family="'RobotoMono-Regular'" font-size="9">urBin</text>
	<text transform="matrix(1 0 0 1 199.7622 425.3369)" font-family="'RobotoMono-Regular'" font-size="9">Box Butler</text>
	<text transform="matrix(1 0 0 1 277.1963 193.3574)" font-family="'RobotoMono-Regular'" font-size="9">Google Express</text>
	<text transform="matrix(1 0 0 1 379.4629 193.3574)" font-family="'RobotoMono-Regular'" font-size="9">Instacart</text>
	<text transform="matrix(1 0 0 1 191.6611 440.1797)" font-family="'RobotoMono-Regular'" font-size="9">Brute Storage</text>
	<g>
		<text transform="matrix(1 0 0 1 470.6982 185.9365)" font-family="'RobotoMono-Regular'" font-size="9">Postmates</text>
		<text transform="matrix(1 0 0 1 467.9971 200.7783)" font-family="'RobotoMono-Regular'" font-size="9">TaskRabbit</text>
	</g>
	<text transform="matrix(1 0 0 1 207.8633 469.8633)" font-family="'RobotoMono-Regular'" font-size="9">Clutter</text>
	<text transform="matrix(1 0 0 1 331.1953 624.5166)"><tspan x="0" y="0" font-family="'RobotoMono-Bold'" font-size="12">PLATFORM</tspan><tspan x="-24.018" y="15.75" font-family="'RobotoMono-LightItalic'" font-size="12">Limited service</tspan></text>
	<text transform="matrix(1 0 0 1 663.3477 320.0039)"><tspan x="0" y="0" font-family="'RobotoMono-Bold'" font-size="12">OPEN</tspan><tspan x="-17.291" y="15.75" font-family="'RobotoMono-LightItalic'" font-size="12">Inclusive</tspan></text>
	<text transform="matrix(1 0 0 1 21.312 320.0039)"><tspan x="0" y="0" font-family="'RobotoMono-Bold'" font-size="12">CLOSED</tspan><tspan x="-10.09" y="15.75" font-family="'RobotoMono-LightItalic'" font-size="12">Exclusive</tspan></text>
	<rect x="1164.349" y="517.497" width="90.005" height="90.007"/>
	<rect x="1074.343" y="607.496" width="90.006" height="67.503"/>
	<rect x="984.349" y="607.496" width="90.005" height="67.503"/>
	<rect x="27.97" y="752.613" width="90.005" height="90.007"/>
	<rect x="117.975" y="752.613" width="90.005" height="90.007"/>
	<rect x="270" y="737.299" width="90.005" height="90.006"/>
	<rect x="-328.482" y="-30.374" width="67.5" height="90.006"/>
	<rect x="1164.349" y="67.496" width="67.5" height="90.006"/>
	<rect x="1164.349" y="157.502" width="67.5" height="90.007"/>
	<rect x="-261.141" y="-97.871" width="90.005" height="67.497"/>
	<rect x="-171.136" y="-97.871" width="90.005" height="67.497"/>
</g>
<g id="AXIS">
	<g>
		<g>
			<line fill="none" stroke="#333333" stroke-width="0.25" stroke-miterlimit="10" x1="180" y1="593.996" x2="180" y2="593.496"/>
			
				<line fill="none" stroke="#333333" stroke-width="0.25" stroke-miterlimit="10" stroke-dasharray="1,1" x1="180" y1="592.496" x2="180" y2="54.996"/>
			<line fill="none" stroke="#333333" stroke-width="0.25" stroke-miterlimit="10" x1="180" y1="54.496" x2="180" y2="53.996"/>
		</g>
	</g>
	<g>
		<g>
			<line fill="none" stroke="#333333" stroke-width="0.25" stroke-miterlimit="10" x1="540" y1="593.996" x2="540" y2="593.496"/>
			
				<line fill="none" stroke="#333333" stroke-width="0.25" stroke-miterlimit="10" stroke-dasharray="1,1" x1="540" y1="592.496" x2="540" y2="54.996"/>
			<line fill="none" stroke="#333333" stroke-width="0.25" stroke-miterlimit="10" x1="540" y1="54.496" x2="540" y2="53.996"/>
		</g>
	</g>
	<g>
		<g>
			<line fill="none" stroke="#333333" stroke-width="0.25" stroke-miterlimit="10" x1="450" y1="593.996" x2="450" y2="593.496"/>
			
				<line fill="none" stroke="#333333" stroke-width="0.25" stroke-miterlimit="10" stroke-dasharray="1,1" x1="450" y1="592.496" x2="450" y2="54.996"/>
			<line fill="none" stroke="#333333" stroke-width="0.25" stroke-miterlimit="10" x1="450" y1="54.496" x2="450" y2="53.996"/>
		</g>
	</g>
	<g>
		<g>
			<line fill="none" stroke="#333333" stroke-width="0.25" stroke-miterlimit="10" x1="270" y1="593.996" x2="270" y2="593.496"/>
			
				<line fill="none" stroke="#333333" stroke-width="0.25" stroke-miterlimit="10" stroke-dasharray="1,1" x1="270" y1="592.496" x2="270" y2="54.996"/>
			<line fill="none" stroke="#333333" stroke-width="0.25" stroke-miterlimit="10" x1="270" y1="54.496" x2="270" y2="53.996"/>
		</g>
	</g>
	<g>
		<g>
			<line fill="none" stroke="#333333" stroke-width="2" stroke-miterlimit="10" x1="360" y1="594.004" x2="360" y2="54.004"/>
			<g>
				<polygon fill="#333333" points="363.391,590.141 360,593.533 356.609,590.141 356.609,593.02 360,596.41 363.391,593.02 				"/>
			</g>
			<g>
				<polygon fill="#333333" points="363.391,57.867 360,54.475 356.609,57.867 356.609,54.988 360,51.598 363.391,54.988 				"/>
			</g>
		</g>
	</g>
	<g>
		<g>
			<line fill="none" stroke="#333333" stroke-width="2" stroke-miterlimit="10" x1="630" y1="324" x2="90" y2="324"/>
			<g>
				<polygon fill="#333333" points="626.137,320.609 629.529,324 626.137,327.391 629.016,327.391 632.406,324 629.016,320.609 				
					"/>
			</g>
			<g>
				<polygon fill="#333333" points="93.863,320.609 90.471,324 93.863,327.391 90.984,327.391 87.594,324 90.984,320.609 				"/>
			</g>
		</g>
	</g>
	<g>
		<g>
			<line fill="none" stroke="#333333" stroke-width="0.25" stroke-miterlimit="10" x1="630" y1="144.003" x2="629.5" y2="144.003"/>
			
				<line fill="none" stroke="#333333" stroke-width="0.25" stroke-miterlimit="10" stroke-dasharray="1,1" x1="628.5" y1="144.003" x2="91" y2="144.003"/>
			<line fill="none" stroke="#333333" stroke-width="0.25" stroke-miterlimit="10" x1="90.5" y1="144.003" x2="90" y2="144.003"/>
		</g>
	</g>
	<g>
		<g>
			<line fill="none" stroke="#333333" stroke-width="0.25" stroke-miterlimit="10" x1="630" y1="234.001" x2="629.5" y2="234.001"/>
			
				<line fill="none" stroke="#333333" stroke-width="0.25" stroke-miterlimit="10" stroke-dasharray="1,1" x1="628.5" y1="234.001" x2="91" y2="234.001"/>
			<line fill="none" stroke="#333333" stroke-width="0.25" stroke-miterlimit="10" x1="90.5" y1="234.001" x2="90" y2="234.001"/>
		</g>
	</g>
	<g>
		<g>
			<line fill="none" stroke="#333333" stroke-width="0.25" stroke-miterlimit="10" x1="630" y1="413.999" x2="629.5" y2="413.999"/>
			
				<line fill="none" stroke="#333333" stroke-width="0.25" stroke-miterlimit="10" stroke-dasharray="1,1" x1="628.5" y1="413.999" x2="91" y2="413.999"/>
			<line fill="none" stroke="#333333" stroke-width="0.25" stroke-miterlimit="10" x1="90.5" y1="413.999" x2="90" y2="413.999"/>
		</g>
	</g>
	<g>
		<g>
			<line fill="none" stroke="#333333" stroke-width="0.25" stroke-miterlimit="10" x1="630" y1="503.998" x2="629.5" y2="503.998"/>
			
				<line fill="none" stroke="#333333" stroke-width="0.25" stroke-miterlimit="10" stroke-dasharray="1,1" x1="628.5" y1="503.998" x2="91" y2="503.998"/>
			<line fill="none" stroke="#333333" stroke-width="0.25" stroke-miterlimit="10" x1="90.5" y1="503.998" x2="90" y2="503.998"/>
		</g>
	</g>
</g>
</svg>
